<svg width="49" height="91" viewBox="0 0 49 91" fill="none" xmlns="http://www.w3.org/2000/svg">
<path fill-rule="evenodd" clip-rule="evenodd" d="M29.0338 0.339484C29.9239 0.478968 31.2038 1.00745 31.8784 1.51426C33.7221 2.90021 36.2605 8.20727 36.0559 10.2478C35.9569 11.232 36.2152 12.3873 36.6288 12.8158C37.3785 13.591 38.7412 17.5799 38.9555 19.6272C39.0507 20.5341 38.5755 20.7319 35.9284 20.8881C34.2018 20.9898 32.2798 21.3065 31.6576 21.5922C29.8527 22.4218 29.0338 21.1537 29.0338 17.5293C29.0338 15.2215 29.329 14.0434 30.0152 13.6116C30.8342 13.097 30.7273 12.9814 29.3678 12.9147C27.8057 12.8375 27.739 12.9647 27.739 16.0339C27.739 17.7939 28.0226 20.5158 28.3683 22.0829C29.0947 25.3699 28.7367 26.6097 27.0606 26.6097C26.4074 26.6097 25.6933 26.8598 25.4732 27.1654C25.2266 27.5077 26.3297 27.7211 28.3482 27.7211C31.3857 27.7211 31.6233 27.8195 31.6233 29.0726C31.6233 29.9373 30.93 30.8481 29.6974 31.6011C26.9078 33.3066 26.0196 36.5253 27.4121 39.8823C29.048 43.824 29.2727 44.9482 28.424 44.9482C28.0051 44.9482 27.8258 45.1749 28.0252 45.4517C28.2246 45.7284 28.9257 45.8346 29.5828 45.6873C30.3713 45.51 31.3611 46.0141 32.4953 47.1711C34.9295 49.6545 34.8265 50.6354 32.2752 49.2672C31.231 48.7076 30.6548 48.7615 29.0655 49.5673L27.1292 50.5492L26.7298 48.9988C26.0338 46.2942 25.9005 46.2758 25.848 48.8771C25.8079 50.8604 25.4428 51.6807 24.1785 52.6243C23.2883 53.2889 22.56 54.1342 22.56 54.5026C22.56 55.0244 22.7329 55.025 23.3369 54.5065C24.2244 53.7446 26.4443 53.6034 26.4443 54.3092C26.4443 54.5676 25.8668 55.2272 25.1618 55.7752C24.1577 56.5548 23.68 56.6299 22.964 56.1197C22.461 55.7613 21.7081 55.539 21.2912 55.6262C20.5926 55.7718 19.371 53.3428 18.4362 49.9496C18.2258 49.1855 17.3007 47.5601 16.3808 46.3375C14.7831 44.2136 14.7274 44.1886 15.1216 45.7818C15.3489 46.6987 15.8046 47.5323 16.1341 47.634C17.1648 47.9524 16.7886 50.6237 15.6007 51.425C14.5759 52.1164 14.6296 52.158 16.16 51.8618C18.2621 51.4551 19.2034 52.9738 17.7202 54.3803C17.1777 54.8955 16.7381 55.6718 16.7433 56.1064C16.7517 56.7621 16.8573 56.7555 17.3642 56.0669C17.8257 55.4406 18.1572 55.3951 18.7217 55.8796C19.9135 56.9027 18.914 57.5662 16.6002 57.2884C14.146 56.9933 13.5971 56.5521 9.4629 51.5451C6.39627 47.8307 5.42844 47.1338 3.94788 47.5773C2.5107 48.0074 3.08428 48.7365 5.36952 49.3839C8.03672 50.1397 7.84381 51.2089 4.8814 52.0869C2.89719 52.6754 2.93085 52.6893 5.72817 52.4409C8.61354 52.1842 8.66209 52.2086 10.8476 54.9833C13.8165 58.7521 14.8141 59.1472 19.1244 58.2598C21.2232 57.8274 22.8196 57.7457 23.1504 58.053C23.4521 58.3337 23.3887 60.1181 23.0099 62.0181C22.4338 64.905 22.4817 65.6357 23.3019 66.4637C23.8418 67.0089 25.0544 68.5799 25.9976 69.9553C28.69 73.8831 30.5856 75.4124 33.0093 75.6113L35.1839 75.7903L35.3483 81.0695C35.439 83.9732 35.257 86.6878 34.9444 87.1018C34.6045 87.5519 32.6507 87.9737 30.0864 88.1504L25.7969 88.4461V82.2571C25.7969 78.241 26.0397 76.0681 26.4877 76.0681C26.9059 76.0681 27.0017 75.5736 26.7311 74.8178C26.0908 73.0295 26.107 73.0301 23.612 74.6639C21.1099 76.3015 15.5314 78.291 13.4397 78.291C12.7043 78.291 11.3034 77.603 10.3271 76.7628C7.39388 74.2382 1.5856 59.0683 1.93971 54.8577C2.03617 53.7124 1.90799 52.5982 1.65552 52.3814C0.893551 51.7274 1.13697 48.657 2.19284 45.6051C3.09723 42.9899 3.68828 42.4325 5.29831 42.6754C5.59546 42.7204 6.8708 42.2097 8.13254 41.5406C10.0177 40.5403 10.6457 40.4419 11.6627 40.9871C12.8338 41.6151 12.8778 41.5078 12.4842 38.9615C12.0841 36.3752 12.1599 36.2035 14.4691 34.463C17.2263 32.3852 17.113 31.6822 14.2283 32.9632C12.8163 33.59 12.0524 34.4686 11.5623 36.0324C10.8463 38.3136 9.4014 39.465 4.67942 41.5156C2.45373 42.4825 1.83808 43.1321 0.956995 45.4439C-1.49981 51.8918 0.865065 63.3295 7.00157 74.6789C8.21216 76.9184 9.04793 79.7464 9.54641 83.2924C10.3997 89.3625 11.1241 90.2266 15.8732 90.8379C20.9739 91.4942 32.2707 90.0315 32.2707 88.7145C32.2707 88.4828 32.6844 88.2938 33.1893 88.2938C33.6943 88.2938 34.9754 87.8665 36.0358 87.3441C37.8925 86.4294 37.9799 86.2049 38.4117 81.2618C38.7814 77.0256 39.1692 75.7108 40.6316 73.7319C41.6059 72.4132 42.9214 70.0859 43.5551 68.561C44.1889 67.0356 44.9535 65.2873 45.2539 64.676C46.4023 62.3392 47.8078 58.2009 47.8078 57.1544C47.8078 56.5537 48.1282 56.0625 48.5205 56.0625C49.5285 56.0625 48.9206 52.3275 46.9474 46.402C45.0208 40.6159 44.1274 39.4872 43.5241 42.0769C43.2955 43.0577 42.8553 43.9946 42.5452 44.1591C42.2351 44.3236 41.9814 44.8204 41.9814 45.2633C41.9814 45.9324 42.2047 45.9502 43.2962 45.3694C44.3825 44.7915 44.7172 44.8148 45.228 45.5039C45.5678 45.9624 45.8501 46.8499 45.8559 47.4767C45.8611 48.103 46.2036 48.906 46.6172 49.2611C47.5877 50.0941 47.6835 57.9008 46.7364 58.9105C46.3421 59.3306 45.2189 61.848 44.2414 64.5043C43.2599 67.1695 41.6609 70.1581 40.6737 71.1729C38.9937 72.8989 38.6364 73.0106 34.8492 72.9911C31.1708 72.9723 30.6781 72.825 29.2675 71.324C26.8703 68.7727 24.5002 64.3587 24.5203 62.4832C24.5306 61.5496 25.1929 59.6874 25.9931 58.3453C27.3053 56.1431 27.7947 55.828 30.9921 55.125L34.5365 54.3453L36.3796 56.3153C37.3934 57.399 38.7639 58.2853 39.4255 58.2853C40.4801 58.2853 40.4244 58.1108 38.9769 56.8683C37.787 55.8469 37.4316 55.0878 37.7054 54.153C37.9463 53.3289 37.7171 52.5937 37.0781 52.1386C36.421 51.6701 36.2093 50.9516 36.4676 50.0686C36.7907 48.9632 36.2152 48.1325 33.3233 45.53C31.3767 43.7779 29.3238 41.3994 28.7613 40.2441C26.9803 36.5847 27.7856 32.7392 29.6928 35.7978C30.1628 36.5514 30.9351 37.1682 31.409 37.1682C31.8829 37.1682 32.2707 37.4183 32.2707 37.7239C32.2707 38.6737 34.5475 38.3347 36.0061 37.1682C36.77 36.557 37.5527 36.0568 37.7443 36.0568C37.9365 36.0568 39.2669 36.9671 40.7021 38.0796C42.1367 39.1921 43.4179 40.0052 43.55 39.8857C43.6814 39.7668 43.5357 37.3388 43.2263 34.4914C42.698 29.6361 42.1736 27.1043 39.6929 17.4404C39.1439 15.3009 38.4642 12.5502 38.1826 11.3276C37.9016 10.105 37.1603 8.10446 36.5356 6.88189C35.9109 5.65932 34.9884 3.84047 34.486 2.84019C33.5499 0.977442 31.3488 -0.123425 28.8299 0.0110576C27.5843 0.0777431 27.6083 0.117199 29.0338 0.339484ZM39.2086 22.8586C39.9894 23.73 41.6732 31.505 41.1741 31.9334C40.9715 32.1079 39.4715 32.0785 37.8414 31.869C35.2603 31.5366 34.5948 31.1488 32.6805 28.8614C28.8726 24.3118 28.9962 22.9487 33.2502 22.5769C38.1618 22.1468 38.5885 22.1673 39.2086 22.8586ZM22.1379 29.6278C21.1235 30.7186 19.8015 31.6111 19.1995 31.6111C18.5974 31.6111 17.9248 31.8612 17.7047 32.1668C17.4846 32.4725 17.8723 32.7225 18.5657 32.7225C20.9487 32.7225 22.5335 34.5042 23.2637 38.0018C23.6463 39.8357 24.2302 41.5762 24.5611 41.8696C25.5535 42.7498 24.4646 37.1293 23.1226 34.4452C21.912 32.0251 21.9133 31.9801 23.2268 30.0685C25.0285 27.4477 24.3999 27.1938 22.1379 29.6278ZM34.8168 33.4866C35.4538 34.508 35.4687 35.081 34.8829 36.0207C33.4276 38.3552 29.8683 35.9585 31.0167 33.4172C31.7554 31.7817 33.7771 31.8189 34.8168 33.4866ZM41.9885 34.6786C43.3849 36.9187 41.9477 37.54 39.4851 35.7606C36.9668 33.9418 36.9124 33.2783 39.2824 33.2783C40.5785 33.2783 41.3709 33.6884 41.9885 34.6786ZM13.5479 43.0493C13.5789 43.6968 13.7324 43.8285 13.9389 43.3856C14.126 42.9843 14.1027 42.5047 13.8877 42.3203C13.6728 42.1358 13.52 42.4636 13.5479 43.0493ZM32.7983 51.7557C32.9686 52.5276 32.5581 52.7282 30.8076 52.7282C28.1793 52.7282 27.4827 52.2742 28.4984 51.2228C29.5213 50.1652 32.529 50.5381 32.7983 51.7557ZM27.2548 80.236C27.2619 81.4585 27.3946 81.8931 27.5494 81.2018C27.7041 80.5105 27.6983 79.5102 27.5364 78.979C27.3746 78.4477 27.2477 79.0134 27.2548 80.236ZM23.0773 81.2479C23.5052 82.2632 23.8548 84.5089 23.8548 86.2388C23.8548 89.0418 23.6962 89.4164 22.3982 89.6825C21.5974 89.8465 19.65 89.7848 18.0724 89.5453C14.8459 89.0551 14.3927 88.3344 14.023 83.1046L13.8204 80.236L16.4099 79.8981C21.8524 79.1879 22.2428 79.2668 23.0773 81.2479Z" fill="white"/>
</svg>
