<svg width="93" height="104" viewBox="0 0 93 104" fill="none" xmlns="http://www.w3.org/2000/svg">
<path fill-rule="evenodd" clip-rule="evenodd" d="M39.3521 0.935698C38.9088 1.44777 38.6617 2.20032 38.8041 2.60896C38.9466 3.0176 39.5773 2.5988 40.2074 1.67873C41.4099 -0.0795524 40.7374 -0.663321 39.3521 0.935698ZM46.3133 5.39899C46.5246 7.84194 46.8977 11.5539 47.1421 13.6479C47.3866 15.7419 47.5926 18.74 47.6006 20.3105L47.6152 23.1659H43.1431C38.9824 23.1659 38.671 23.263 38.671 24.5561C38.671 25.8702 38.7703 25.8963 40.4929 25.0358C42.6462 23.9597 44.8902 23.8651 46.6651 24.7744C47.7603 25.336 47.9464 26.1355 47.9464 30.2764C47.9464 33.8254 47.6629 35.4219 46.8877 36.2423C45.4878 37.7239 46.2252 38.7119 48.7289 38.7119C50.2713 38.7119 50.5966 38.5215 50.0838 37.9187C49.7128 37.4828 49.239 32.8425 49.0317 27.6076C48.505 14.3313 47.5761 4.4142 46.6843 2.5436C46.0668 1.24725 45.9986 1.76947 46.3133 5.39899ZM59.8721 6.66806C59.3023 7.32543 59.2771 7.61985 59.7912 7.61985C60.2 7.61985 60.5346 7.33431 60.5346 6.98532C60.5346 5.75687 63.0237 6.36983 64.751 8.02342C66.29 9.49807 66.4974 10.2005 66.4974 13.9461C66.4974 16.2831 66.2808 18.4024 66.0164 18.6563C65.7514 18.9094 65.4937 21.2883 65.4433 23.9425C65.3717 27.6755 65.0968 28.9465 64.2282 29.555C63.5107 30.0575 63.359 30.4915 63.8088 30.7574C64.5449 31.1933 64.1341 35.248 63.0774 37.9873C62.5699 39.3033 62.2154 39.4327 60.1338 39.0583C58.8319 38.8248 57.0358 38.314 56.1427 37.9244C54.7586 37.3204 54.5837 36.9276 54.9607 35.267C55.7816 31.6496 56.4998 30.463 57.8679 30.463C59.5633 30.463 59.5733 29.7745 57.8984 28.4008C56.6594 27.3849 56.5488 27.3925 55.9108 28.5353C55.5384 29.2003 55.2343 30.1958 55.2343 30.7473C55.2343 31.298 54.9726 32.2454 54.6526 32.8514C54.3326 33.4573 53.6257 34.9567 53.0811 36.1839L52.0913 38.4149L55.816 39.578C62.6679 41.717 62.6852 41.7405 62.1518 48.2692C61.8239 52.2896 61.918 54.1951 62.4765 54.8398C62.9608 55.3982 63.0979 56.5936 62.8336 57.9426C62.4884 59.7041 62.1538 60.0747 61.1382 59.8202C59.4474 59.397 59.5176 60.694 61.2329 61.5734C61.9809 61.9567 63.1721 63.1801 63.8804 64.2924L65.1677 66.314L65.1697 64.5691C65.1723 62.7676 66.0933 62.2207 66.7737 63.6173C67.0804 64.2467 67.2408 64.2435 67.5522 63.6001C67.7681 63.1547 68.9216 61.7987 70.1148 60.5861C72.331 58.3361 74.4478 57.6863 74.4478 59.2568C74.4478 59.7371 74.8513 60.4516 75.3442 60.8431C76.0829 61.4307 76.187 61.0176 75.9339 58.4979C75.7026 56.192 75.9014 55.1774 76.7415 54.3728C77.3537 53.7865 77.5942 53.3061 77.2755 53.3061C76.9562 53.3061 75.6682 54.3309 74.412 55.5828C70.7423 59.2422 67.3647 61.5906 66.3212 61.2067C64.4939 60.5353 63.7876 57.6235 63.7943 50.7858C63.7976 47.0579 63.9566 43.6016 64.1474 43.1048C64.8702 41.2253 65.9813 33.029 66.5497 25.3867C66.8744 21.0243 67.3103 16.2235 67.519 14.7177C67.9417 11.6586 66.8386 7.70488 65.2339 6.52973C63.7651 5.45356 60.8592 5.52844 59.8721 6.66806ZM23.5983 6.80765C23.1432 6.96375 22.7701 7.70171 22.7701 8.44855C22.7701 9.7963 22.7774 9.79566 23.8315 8.35464C24.9744 6.79179 24.9088 6.35967 23.5983 6.80765ZM38.1376 7.93712C38.1509 8.9841 38.2993 9.33563 38.4676 8.71823C38.6359 8.10083 38.6246 7.24421 38.4431 6.81463C38.2615 6.38505 38.1244 6.89014 38.1376 7.93712ZM38.671 13.7894C38.671 16.0693 38.7054 16.1042 39.6648 14.7926C40.2114 14.0451 40.4777 12.9823 40.2564 12.4302C39.5356 10.632 38.671 11.3731 38.671 13.7894ZM30.1104 13.066C30.1422 13.8053 30.2992 13.9557 30.5105 13.4499C30.702 12.9918 30.6782 12.4442 30.4582 12.2335C30.2382 12.0229 30.0819 12.3972 30.1104 13.066ZM30.7404 16.5928C30.7225 18.7064 30.484 18.9945 27.9545 19.964C24.9459 21.1163 24.6087 20.9355 23.2796 17.4551C22.9669 16.6365 22.9126 16.8618 23.1266 18.0896C23.3095 19.1366 23.6387 21.0446 23.858 22.3289L24.2575 24.6646L25.8251 22.8803C28.5137 19.8206 32.0456 20.0338 32.0456 23.2553C32.0456 24.0377 32.3438 24.8537 32.7082 25.0695C33.6231 25.6107 33.5443 29.6508 32.6081 30.2054C32.0655 30.5258 32.1457 30.8672 32.8851 31.385C34.1863 32.2962 35.4603 38.6123 34.6395 40.0812C34.1167 41.0165 30.2634 42.37 29.7831 41.7862C29.3889 41.3071 27.4079 34.9301 27.4079 34.1395C27.4079 33.675 28.2274 32.7936 29.2299 32.18L31.0518 31.0652L28.6217 31.4598C26.4466 31.8126 26.1603 31.6978 25.896 30.3653C25.6899 29.3253 25.5826 29.5461 25.5395 31.0975C25.5058 32.319 25.9079 34.4605 26.4333 35.8565C26.958 37.2525 27.3927 39.7513 27.398 41.4087C27.4072 44.1555 28.1188 45.2533 29.0026 43.8833C29.1941 43.5864 31.4361 42.7133 33.9849 41.9429C38.8008 40.4873 42.3447 38.2715 40.8242 37.6662C40.2862 37.4524 39.9795 35.8559 39.9497 33.1071C39.9238 30.7803 39.6204 28.3056 39.2752 27.6076C38.8505 26.7484 38.7491 28.1393 38.9605 31.9148C39.2739 37.5202 39.0248 39.3464 37.9462 39.3464C37.0981 39.3464 35.3583 35.0487 35.3583 32.9535C35.3583 31.9656 35.0926 30.5011 34.7673 29.6996C34.4427 28.8982 33.6543 25.5295 33.0156 22.2141C31.6872 15.318 30.7716 13.0546 30.7404 16.5928ZM57.8845 19.339C57.8845 19.905 58.2734 20.1277 58.8743 19.9069C59.4189 19.7064 59.6998 19.2876 59.4977 18.9748C58.92 18.0788 57.8845 18.3123 57.8845 19.339ZM0.969467 30.8481C0.0458946 31.9725 -0.210506 32.8361 0.169126 33.5449C0.475879 34.1185 0.90719 35.0158 1.12649 35.5392C1.34645 36.0627 1.36964 35.4916 1.17949 34.2702C0.957542 32.8507 1.18347 31.5937 1.80559 30.786C2.77421 29.5283 2.79541 29.5296 5.98353 30.9617L9.1882 32.4015L7.32913 30.7974C4.93275 28.7301 2.69404 28.7479 0.969467 30.8481ZM11.5071 36.4745C11.5071 36.9891 12.4757 37.8807 13.6603 38.4555L15.8135 39.5L13.8677 37.5196C11.6442 35.2569 11.5071 35.196 11.5071 36.4745ZM2.23822 37.2855C2.2475 37.9968 6.48771 42.9785 10.7432 47.2781C12.8156 49.372 15.3007 52.0846 16.2647 53.3061C18.0224 55.5321 20.6454 62.6318 22.1262 69.1694C23.3002 74.3561 25.9304 81.5536 27.8624 84.8677C29.4472 87.5861 29.5386 88.18 29.1543 93.2346C28.9264 96.2271 28.9927 99.052 29.3014 99.5133C30.2574 100.94 38.7637 103.525 43.7036 103.89C47.48 104.169 49.3053 103.956 52.9791 102.808C55.4947 102.023 57.9666 101.008 58.4728 100.552C59.1386 99.9524 59.3573 98.2329 59.2672 94.3121C59.1194 87.8868 59.9423 85.942 63.6518 83.9451C66.3848 82.4743 72.2038 76.9069 75.4482 72.6593C76.5149 71.2634 78.8517 68.4689 80.6418 66.4498C82.4313 64.4301 83.7697 62.6572 83.6153 62.5087C82.7858 61.7149 80.4848 63.2499 78.5688 65.8749C70.9821 76.2692 65.8561 81.3594 60.8327 83.4876C56.6018 85.2795 51.6202 85.5213 49.4153 84.0422C47.5231 82.7731 45.8323 79.6944 45.2539 76.4665L44.7994 73.9284L44.7166 77.0116C44.6431 79.747 44.9862 80.5542 47.7603 84.1729C50.7324 88.0486 54.0477 90.4941 55.3145 89.7441C56.0148 89.3298 56.1162 90.0842 55.9121 94.1928C55.7319 97.8274 53.1718 101.531 50.8397 101.531C49.188 101.531 48.654 100.114 48.5672 95.5025C48.4824 91.0068 47.1998 87.3164 45.6223 87.0258C44.912 86.8944 42.36 87.1438 39.9503 87.5791C33.7391 88.7016 31.6269 87.9262 28.8224 83.494C25.4839 78.2191 21.4206 65.4536 22.3455 63.1458C22.5369 62.668 22.0778 61.0563 21.3258 59.5645C19.0089 54.9718 19.0341 52.7579 21.4398 49.5935L23.538 46.832L22.1745 45.615C20.8163 44.4036 20.8124 44.4062 21.1973 46.2501C21.4782 47.5966 21.1695 48.6385 20.065 50.0694C18.1954 52.4914 17.5355 52.5174 15.2749 50.2572C12.9024 47.8853 13.0309 46.1778 15.7811 43.5439C17.723 41.684 17.9231 41.2386 17.1061 40.5901C16.3528 39.9911 16.1448 39.9975 16.1448 40.6193C16.1448 41.0565 15.0954 42.5261 13.8127 43.8859L11.4806 46.358L9.83749 44.785C8.93379 43.9195 8.1944 42.7697 8.1944 42.2304C8.1944 41.691 7.95854 41.25 7.66967 41.25C7.38147 41.25 6.03984 40.2513 4.68827 39.0304C3.33736 37.8096 2.23425 37.0247 2.23822 37.2855ZM84.3858 48.5186C82.8236 49.3473 82.9448 49.3949 86.5318 49.3644C88.6558 49.3466 90.776 49.6836 91.3351 50.1278C92.0712 50.7128 92.3362 50.7261 92.3362 50.1785C92.3362 49.4177 88.424 47.5776 86.8915 47.6175C86.4244 47.6302 85.2968 48.0357 84.3858 48.5186ZM90.2261 54.5974C87.2433 56.1057 86.1501 57.456 88.4438 56.7979C90.615 56.1755 92.9988 54.6723 92.9988 53.9261C92.9988 53.1557 93.1465 53.1202 90.2261 54.5974ZM46.0112 71.4429C46.043 72.1822 46.2 72.3326 46.4114 71.8268C46.6028 71.3687 46.579 70.8211 46.359 70.6104C46.139 70.3998 45.9827 70.7741 46.0112 71.4429ZM32.0456 94.2334C32.0456 96.9828 31.766 98.9924 31.3831 98.9924C31.0001 98.9924 30.7206 96.9828 30.7206 94.2334C30.7206 91.484 31.0001 89.4744 31.3831 89.4744C31.766 89.4744 32.0456 91.484 32.0456 94.2334ZM47.1547 92.8216C47.2978 94.9523 47.0434 96.1408 46.2901 96.8616C45.7038 97.4238 45.3142 98.6047 45.4255 99.4861C45.5719 100.649 45.2645 101.18 44.3025 101.423C41.9472 102.02 34.6262 101.63 33.6529 100.857C33.0023 100.34 32.7082 98.7468 32.7082 95.7423V91.378L36.1865 91.3292C38.0999 91.3025 40.8573 90.9008 42.3149 90.437C46.4047 89.1356 46.9248 89.3919 47.1547 92.8216ZM47.6622 101.38C46.8784 102.131 46.63 101.023 47.113 98.9353L47.6139 96.7715L47.8272 98.8947C47.9438 100.063 47.8696 101.181 47.6622 101.38Z" fill="white"/>
</svg>
