<svg width="66" height="82" viewBox="0 0 66 82" fill="none" xmlns="http://www.w3.org/2000/svg">
<path fill-rule="evenodd" clip-rule="evenodd" d="M57.6372 0.668781C55.7482 1.56955 54.3186 3.0416 53.065 5.37669L52.1666 7.04934H48.6227C46.5823 7.04934 44.48 7.21335 43.6674 7.436C42.2883 7.81396 42.2079 7.79886 40.1749 6.78285C37.1962 5.29425 36.0951 5.40746 31.1191 7.71323L28.2531 9.0413L26.1187 8.39367C23.3357 7.5495 22.3455 7.73848 19.2925 9.69677C15.5757 12.0806 15.2734 12.195 13.6774 11.8165C12.5634 11.552 11.9852 11.5825 10.5261 11.9822C6.55254 13.0702 4.14113 15.8053 3.27826 20.2023C3.07548 21.2352 2.62556 22.2326 2.05668 22.909C0.260061 25.0458 -0.158431 26.9577 0.680402 29.1972C1.06376 30.2208 1.06161 30.59 0.663145 32.0641C0.411679 32.9945 0.130013 35.7807 0.0369467 38.2554C-0.189249 44.2751 0.607366 49.9999 2.86377 58.5757C3.906 62.5361 6.09553 77.2021 6.09553 80.2225C6.09553 81.7201 6.7849 82.4348 7.54176 81.7222C7.99045 81.2992 7.98737 80.8141 7.50355 76.0374C7.21295 73.165 6.64746 68.7491 6.24746 66.2242C5.84745 63.6995 5.56795 61.5883 5.6268 61.5328C5.68567 61.4774 6.05793 61.6286 6.45393 61.8684C7.57289 62.5465 10.5076 62.9332 14.2416 62.8949L17.6518 62.8597L14.1079 62.4574C9.41727 61.9247 7.56765 61.3903 6.10477 60.1455C5.00523 59.2099 4.8419 58.8651 4.1137 55.939C1.90999 47.0863 1.68226 45.6296 1.66623 40.2874C1.65298 35.884 1.7442 34.8823 2.3516 32.7658C3.01539 30.4527 3.02679 30.251 2.5707 28.9374C1.86438 26.9034 1.97132 25.7521 3.04313 23.8431C3.56763 22.9087 4.27703 21.2953 4.6191 20.2575C6.28567 15.2027 8.67181 13.0606 12.9575 12.7718L15.0475 12.631L14.8604 14.1945C14.7255 15.3232 14.7957 15.9113 15.1131 16.3087C15.5196 16.8179 15.5668 16.761 15.7433 15.5473C16.0281 13.591 16.5212 12.8043 18.2096 11.6121C21.8321 9.05378 22.7933 8.77104 25.6118 9.43435C26.6574 9.68052 27.5536 9.91391 27.6029 9.9531C27.6519 9.99229 27.4004 10.4901 27.0439 11.0597C26.6257 11.7273 26.4297 12.4641 26.4919 13.1344C26.626 14.5751 27.1434 14.553 27.4075 13.0952C27.801 10.9232 28.9446 9.71303 31.7684 8.4793C35.28 6.94541 37.8399 6.77588 39.8051 7.94691L41.1761 8.76378L40.4575 9.56847C39.7077 10.4077 38.8889 12.3462 39.1715 12.6124C39.2612 12.6969 39.6162 12.2461 39.9607 11.6104C41.0664 9.56846 42.1925 8.7603 44.5256 8.33358C45.6772 8.12283 47.7984 7.94372 49.239 7.9353L51.8585 7.9202L52.0314 10.3877C52.1263 11.7448 52.4572 13.9269 52.7663 15.2367C53.3232 17.5961 53.3223 17.6324 52.685 19.1556C52.3312 20.0012 51.6884 21.738 51.2563 23.0152C50.8243 24.2925 50.5346 25.0098 50.6126 24.6095C50.7685 23.808 50.3599 22.9165 50.052 23.3859C49.9481 23.5441 49.6397 25.0928 49.3663 26.8279C48.5937 31.7318 47.8692 34.4965 46.8082 36.5903C45.7755 38.629 44.1922 40.1298 42.8116 40.3783C41.5392 40.6073 41.4245 40.2996 42.5225 39.6027C43.0766 39.2508 43.6597 38.6151 43.8187 38.1892C44.1931 37.1869 43.6316 35.3842 42.5777 34.2044C41.913 33.4601 41.5687 33.3205 40.3986 33.3205H39.0091L39.1835 31.6513C39.2797 30.7334 39.4473 27.2715 39.5558 23.9587C39.729 18.6867 39.6954 17.9352 39.2861 17.9352C38.9151 17.9352 38.7817 18.4885 38.6387 20.6204C38.5398 22.0973 38.2442 26.31 37.9817 29.9822C37.6578 34.5153 37.5971 37.1134 37.7925 38.0751C38.1225 39.6987 37.765 40.7943 36.4119 42.3093C35.5123 43.3163 34.6701 43.7105 32.9826 43.914C31.3924 44.1056 30.0242 42.7372 29.5203 40.4509C29.1755 38.8865 29.1915 38.7213 29.7157 38.4287C30.7749 37.838 31.6226 37.7349 33.0565 38.0232C34.1431 38.2415 34.5533 38.4813 34.7736 39.0273C35.3351 40.4178 35.1136 41.6617 34.0984 42.8173C33.1866 43.8557 33.2035 43.849 34.4066 42.6936C35.5262 41.6184 35.6797 41.3101 35.6797 40.1345C35.6797 39.3994 35.5394 38.5509 35.3678 38.249C34.7663 37.1901 31.4257 36.7497 29.8426 37.5207L28.9671 37.9474L28.7847 36.7224C28.4091 34.2004 27.6765 26.9701 27.4916 23.9587C27.3776 22.1049 27.1696 20.8381 26.9788 20.8381C26.76 20.8381 26.7166 23.1255 26.8417 28.0227C26.9933 33.9455 27.1573 35.8446 27.7755 38.836L28.5252 42.4646L27.4291 43.7332C26.1286 45.238 24.6047 45.9254 23.1425 45.6671C21.9049 45.4482 20.1674 44.085 19.7098 42.9741C19.5276 42.5317 19.3289 39.3846 19.2654 35.9331C19.156 29.9874 19.1051 29.5406 18.1883 26.4987C17.6592 24.7425 17.0586 22.3258 16.8537 21.1284C16.6491 19.9309 16.4198 19.1181 16.3446 19.3222C16.1443 19.8662 17.139 26.9635 17.8281 29.9064C18.4407 32.5228 18.6349 37.4902 18.1523 38.2072C17.9424 38.519 17.8552 38.5048 17.7045 38.1347C17.4389 37.483 16.3668 37.5683 14.4931 38.3901C12.9131 39.083 12.8749 39.1286 12.8651 40.3467L12.8546 41.5937L12.2697 40.9328C11.6496 40.2326 9.62929 34.7052 7.78922 28.6759C6.91372 25.8064 6.50786 24.9129 5.84961 24.4046C5.39167 24.051 4.91278 23.7572 4.78582 23.7514C4.35623 23.732 4.55099 24.4258 5.14483 25.0287C5.7812 25.6752 6.42404 28.6111 5.8567 28.2808C5.67981 28.1777 5.29614 28.1798 5.00461 28.2851C4.57071 28.4419 4.66008 28.5673 5.49645 28.9746C6.39846 29.4138 6.59846 29.7415 7.19816 31.7593C8.22929 35.2292 10.3553 40.5978 11.1504 41.7389C12.4142 43.5529 16.7544 45.0006 18.0078 44.0261C18.4478 43.6838 18.5446 43.6888 18.6759 44.0612C18.9924 44.9585 20.8167 46.3432 22.1169 46.6729C24.2432 47.2123 26.0423 46.8213 27.4238 45.5199C28.222 44.7681 28.5949 44.1561 28.6017 43.5874L28.6112 42.7549L29.2713 43.5889C30.5653 45.2247 33.2134 45.679 35.381 44.6371C36.6633 44.0208 38.145 41.8228 38.145 40.5368V39.8958L38.8473 40.5174C39.2335 40.8593 40.2689 41.2953 41.1484 41.4866C42.6846 41.8205 42.8051 41.8007 44.2211 40.9824C46.0045 39.9519 47.9417 37.3674 48.7746 34.9075L49.3611 33.1754L49.6024 34.4817C50.093 37.1352 52.0622 41.4585 53.2351 42.4568L53.9078 43.0295L53.6881 42.1665C53.567 41.6919 53.3321 41.0544 53.166 40.7502C52.9999 40.4456 52.395 38.8853 51.8218 37.2821C50.485 33.5429 50.4582 31.5297 51.6757 26.29C52.7734 21.565 53.6264 18.5158 53.8508 18.5158C53.9435 18.5158 54.2033 18.9076 54.4286 19.3866C54.6536 19.8656 54.9805 20.2575 55.155 20.2575C55.5272 20.2575 55.4012 19.483 54.5352 16.4416C52.8594 10.5566 53.0348 7.54602 55.2252 4.58101C56.9118 2.29817 58.2369 1.3887 59.877 1.3887C62.0496 1.3887 63.1066 3.10315 63.1066 6.62638C63.1066 9.63233 63.6684 14.3063 64.3898 17.3012C64.9504 19.6296 65.008 20.4566 64.8031 23.2521C64.6721 25.0377 64.5208 28.5235 64.4666 30.9982C64.3599 35.8591 63.9602 38.7872 63.114 40.9069C61.726 44.3823 57.7451 48.5267 49.2449 55.3453C40.5758 62.2995 40.418 62.5076 39.9481 67.6199C39.5607 71.8361 39.7635 77.9368 40.3503 79.7157C40.79 81.0484 41.4285 81.2754 41.3105 80.0571C40.9435 76.2734 40.8889 69.6267 41.2076 67.5433C41.7922 63.7251 42.1358 63.3172 51.2446 55.6342C57.9371 49.9892 62.367 45.4166 63.8946 42.577C65.0342 40.4587 65.2567 39.1716 65.6459 32.4496C66.1159 24.3317 66.118 18.7448 65.6524 15.3226C65.4462 13.8058 65.0582 10.6388 64.7901 8.28452C64.0548 1.82326 63.2761 0.295179 60.5833 0.0289836C59.5651 -0.0717468 58.8764 0.0780425 57.6372 0.668781ZM43.5379 9.51679C43.6427 9.67645 44.0495 9.80708 44.4418 9.80708C44.8344 9.80708 45.733 9.99896 46.4393 10.2338C47.9518 10.7366 47.823 10.2382 46.2837 9.63233C45.0871 9.16148 43.2541 9.08426 43.5379 9.51679ZM31.6978 10.0631C30.1755 10.3223 30.0658 10.9793 31.5761 10.7923C34.5798 10.4202 34.8744 10.3464 34.4257 10.0788C33.9444 9.79199 33.3117 9.78821 31.6978 10.0631ZM19.1927 14.0058C18.0007 14.5199 18.4577 14.5275 20.5794 14.0288C22.0719 13.6778 22.1455 13.6287 21.1958 13.6186C20.6025 13.6122 19.7011 13.7864 19.1927 14.0058ZM10.564 17.2722C9.58153 17.4934 9.26411 17.9395 10.1171 17.9009C11.0234 17.8597 12.8728 17.4376 12.3612 17.3889C12.163 17.37 11.8164 17.3047 11.5908 17.244C11.3649 17.183 10.903 17.1958 10.564 17.2722ZM41.562 18.4014C42.0261 18.9283 44.407 18.8293 45.0131 18.2583C45.2649 18.0211 44.7977 17.9352 43.2538 17.9352C41.358 17.9352 41.1915 17.981 41.562 18.4014ZM30.0393 18.8342C30.4685 19.2386 33.5043 19.2296 33.9367 18.8223C34.165 18.6072 33.5829 18.5158 31.9816 18.5158C30.3271 18.5158 29.794 18.6031 30.0393 18.8342ZM20.6565 20.7617C19.0244 20.8694 18.548 21.2329 19.6195 21.5531C20.3193 21.7624 22.6787 21.299 23.1437 20.861C23.3816 20.6369 23.3052 20.5632 22.8753 20.6015C22.5446 20.6311 21.5465 20.7031 20.6565 20.7617ZM56.2964 21.239C56.7719 21.7786 59.0909 22.14 60.252 21.8552C61.0265 21.6654 61.0477 21.6268 60.4872 21.4285C60.1482 21.3089 58.979 21.1179 57.889 21.0041C56.1358 20.8212 55.9522 20.8482 56.2964 21.239ZM12.1048 23.3909L10.564 23.8713L11.7011 23.9677C12.3325 24.0214 13.2574 23.86 13.7812 23.6048C15.556 22.7403 14.5877 22.6167 12.1048 23.3909ZM40.1136 29.0187C39.8895 29.3601 42.5238 29.3041 43.0757 28.956C43.4094 28.7453 43.084 28.6805 41.9037 28.7226C41.0048 28.7548 40.1992 28.8881 40.1136 29.0187ZM51.7044 29.1119C51.7044 29.5755 54.9929 31.9977 56.052 32.3144C57.2582 32.6752 56.9688 32.2119 55.1762 30.9123C54.1836 30.1929 53.1873 29.3952 52.9623 29.14C52.4462 28.5542 51.7044 28.5377 51.7044 29.1119ZM32.7521 31.5788C32.2436 31.7007 31.2994 31.8159 30.6537 31.8348C28.8466 31.8876 29.6124 32.4496 31.4917 32.4496C33.2223 32.4496 35.0633 31.986 35.0633 31.5503C35.0633 31.2478 34.0824 31.2597 32.7521 31.5788ZM23.1989 32.5939C23.0294 32.6482 22.34 32.7797 21.667 32.8865C20.6497 33.0479 20.5354 33.1292 20.9899 33.3687C21.6549 33.7194 23.7021 33.4288 24.4802 32.8732C25.014 32.4923 25.0019 32.4688 24.2774 32.4819C23.8537 32.4894 23.3683 32.5399 23.1989 32.5939ZM13.7997 33.5193C12.4201 33.7342 12.127 33.893 12.486 34.2311C12.8974 34.6187 15.0657 34.3049 15.8515 33.744C16.3763 33.3696 16.3495 33.3411 15.4947 33.3693C14.9862 33.3858 14.2235 33.4535 13.7997 33.5193ZM41.912 34.4091C42.798 35.3609 43.4202 36.8391 43.325 37.766C43.2452 38.5396 43.0054 38.7922 41.856 39.3118C40.231 40.0462 39.8396 39.9597 39.3992 38.7695C39.0375 37.7915 38.9472 34.4033 39.2751 34.0947C39.6898 33.7037 41.451 33.9139 41.912 34.4091ZM17.7563 38.9948C18.2777 40.0726 18.2124 42.462 17.6494 42.9021C17.0441 43.375 15.1409 43.0887 14.115 42.3708C13.5843 41.999 13.3073 41.4945 13.2429 40.7806C13.1535 39.7951 13.2333 39.6932 14.6296 39.0087C16.5535 38.0656 17.3054 38.0624 17.7563 38.9948ZM22.1742 38.9097C21.3899 39.265 20.4691 40.769 20.1304 42.2469C19.7924 43.7216 20.4583 43.37 20.8617 41.8608C21.4685 39.591 23.2013 38.5634 24.9425 39.4412C25.2861 39.6143 25.9083 40.4828 26.3252 41.3708C26.8571 42.5038 27.1804 42.8942 27.4087 42.6791C27.8805 42.2347 27.2032 40.5023 26.1366 39.4267C25.4451 38.7295 25.0155 38.5498 24.0768 38.5654C23.4244 38.5762 22.5683 38.7312 22.1742 38.9097ZM28.5918 56.4693C28.5918 57.1318 32.0109 58.9156 35.6211 60.1363C37.1453 60.6518 38.4901 60.8965 39.7814 60.8936C42.4251 60.8872 43.0735 60.4048 40.508 60.3525C37.5795 60.2924 32.0035 58.5022 29.4855 56.8133C28.9939 56.4835 28.5918 56.3288 28.5918 56.4693Z" fill="white"/>
</svg>
