<svg width="49" height="97" viewBox="0 0 49 97" fill="none" xmlns="http://www.w3.org/2000/svg">
<path fill-rule="evenodd" clip-rule="evenodd" d="M27.0929 0.393623C26.6998 0.608447 25.9257 1.47804 25.372 2.32608C24.5122 3.64328 24.2795 3.84637 23.7758 3.7192C20.7248 2.94948 18.0231 3.64304 16.95 5.47132C16.6045 6.05999 15.78 11.4107 15.6729 13.7611C15.5925 15.5201 14.7052 16.1201 11.6241 16.4975C11.3354 16.5327 10.5221 17.9522 10.7904 17.9522C10.9418 17.9522 11.5162 17.6828 12.0669 17.3535C12.725 16.96 13.4437 16.7547 14.1629 16.7547C14.765 16.7547 15.1744 16.828 15.0727 16.9178C14.9708 17.0074 15.2136 17.3805 15.6118 17.7467C16.3245 18.4019 16.3329 18.4486 16.1413 20.6374C16.0342 21.8607 15.8015 23.7067 15.6246 24.7391L15.303 26.6167L12.1297 26.6551L8.9564 26.6936L9.05751 25.4962C9.21735 23.5987 8.94552 24.9985 7.66278 32.6809C7.00306 36.6325 6.40966 40.1351 6.34415 40.4644C6.23433 41.0178 6.07613 41.9248 5.78446 43.6731C5.72085 44.0546 5.54879 44.7012 5.402 45.11C4.81431 46.7458 4.27501 50.0697 4.09832 53.1457C3.97138 55.3557 3.84661 56.1614 3.70717 55.6721C3.59463 55.2769 3.57017 56.0852 3.6528 57.4683C3.73544 58.8513 3.87706 60.0888 3.96785 60.2181C4.16873 60.5055 4.08038 60.0756 5.24652 66.4492C6.4681 73.1272 7.39013 75.6984 9.71234 78.9028C11.2077 80.9662 11.2555 81.7683 10.2535 87.9689C9.72539 91.2382 9.50385 93.2881 9.66341 93.4286C10.1742 93.8786 14.9031 95.5388 16.9796 95.9972C25.1629 97.8037 33.8763 97.1297 38.969 94.2963L40.0737 93.682L40.4162 91.3216C40.7103 89.2943 41.4896 84.9389 42.3401 80.5663C42.6832 78.8024 44.9374 72.8489 46.4159 69.8021C48.802 64.8841 49.0108 63.8969 48.9996 57.588C48.992 53.3121 48.88 51.5706 48.5 49.8045C48.2306 48.5532 47.9031 46.6133 47.7723 45.4937C47.6413 44.3741 47.2874 41.6171 46.9859 39.367C46.6842 37.1172 46.3132 33.0789 46.1612 30.3933C45.6597 21.5261 43.9029 11.5436 42.4603 9.3621C42.2309 9.01556 42.1028 8.90755 42.1754 9.12237C42.3442 9.62027 43.0762 14.2537 43.2962 16.2159L43.4639 17.7127H39.5308H35.5975L35.1808 16.0961C33.8402 10.8982 34.0046 8.16536 35.7649 6.39672C36.2882 5.87079 38.257 5.83463 39.3457 6.33062C39.7719 6.5246 40.5608 7.13674 41.0993 7.69093C42.2689 8.89485 42.3415 8.77654 41.3344 7.3075C40.7122 6.40007 40.3121 6.12465 38.885 5.62124C36.9939 4.95426 36.3369 4.89008 35.4896 5.28955C34.7114 5.65645 34.1949 5.01916 34.1949 3.69214C34.1949 2.37733 33.2995 1.2158 31.7566 0.529175C30.3015 -0.11841 28.144 -0.181157 27.0929 0.393623ZM32.1497 1.51947C33.2424 2.48223 33.4699 3.78434 33.2215 7.65405C33.0989 9.56399 32.9882 11.6116 32.9757 12.2044L32.9529 13.2821H29.4287H25.9042L25.9811 12.4029C26.0235 11.9194 25.8708 10.4185 25.6413 9.06777C24.921 4.82182 25.1496 3.6361 27.0048 2.00181C28.1552 0.988041 28.2628 0.948285 29.8508 0.948285C31.2276 0.948285 31.6087 1.04288 32.1497 1.51947ZM22.9603 4.90995C24.3591 5.41121 24.4331 5.74338 24.139 10.2089C23.9927 12.4262 23.8715 14.8057 23.8693 15.4974L23.8655 16.7547H20.1776C16.651 16.7547 16.4968 16.7344 16.6569 16.2899C16.7491 16.0343 16.929 14.0137 17.0573 11.7994C17.3422 6.87498 17.7247 5.73955 19.4334 4.74758C20.2508 4.27291 21.319 4.322 22.9603 4.90995ZM31.5041 14.3965C32.0121 14.5483 32.7643 14.879 33.1755 15.1312L33.9231 15.5898V19.3707V23.1513L30.2344 23.3199C28.2055 23.4126 26.3935 23.5398 26.2078 23.6025C25.9621 23.6856 25.7827 22.9758 25.5476 20.9873C24.9852 16.2336 25.189 15.0656 26.6824 14.4887C27.7447 14.0784 30.2776 14.03 31.5041 14.3965ZM22.5768 17.7259C24.3105 18.15 24.4777 18.6225 24.2564 22.4659C24.1504 24.3066 23.9884 25.9105 23.8965 26.03C23.8046 26.1495 22.2761 26.4065 20.4998 26.6009L17.2696 26.9549L17.4414 25.028C17.5358 23.9682 17.6926 21.8942 17.7896 20.4189L17.9666 17.7366L19.0814 17.6468C21.2543 17.4715 21.5659 17.4785 22.5768 17.7259ZM42.1868 18.4199C43.8308 18.7559 44.362 19.3767 44.396 21.0031C44.412 21.7618 44.5259 23.2878 44.649 24.394L44.8733 26.405L43.4261 26.236C42.6302 26.143 41.0082 25.8626 39.8217 25.6128C37.9425 25.2174 37.5291 25.1999 36.6185 25.4763L35.573 25.7936L35.2572 24.9508C34.8272 23.8022 35.0653 19.4775 35.5839 19.0206C36.3045 18.3857 40.2593 18.0259 42.1868 18.4199ZM9.52832 21.6255C9.36848 21.9344 9.33124 22.321 9.44568 22.4841C9.57888 22.6738 9.71724 22.5011 9.83004 22.0046C10.0475 21.0466 9.91431 20.8792 9.52832 21.6255ZM33.4452 24.9573C34.4292 25.6241 34.7625 30.0044 34.0416 32.7956L33.6167 34.4421L32.7504 34.33C32.2742 34.2683 30.9058 34.3731 29.7098 34.5631C27.4449 34.9225 26.8143 34.8268 26.3462 34.0525C25.7476 33.0627 25.2502 26.5693 25.6677 25.1968C25.8273 24.6726 25.9287 24.6579 29.4178 24.6579C31.8697 24.6579 33.1435 24.7525 33.4452 24.9573ZM43.3193 27.4746C44.8225 28.1562 44.9967 28.3916 45.3175 30.1756C45.7214 32.422 46.0133 38.3085 45.7208 38.3109C45.586 38.3121 44.0842 37.8642 42.3834 37.3158C39.1293 36.2666 37.3878 35.3021 36.6016 34.1143C35.6233 32.6356 35.3186 27.8362 36.1738 27.3707C37.4652 26.6675 41.6736 26.7286 43.3193 27.4746ZM23.6054 27.2923C24.3545 27.2923 24.7932 32.6323 24.1778 34.258C23.6652 35.6125 22.4797 36.4512 20.8115 36.6397C19.1325 36.8296 17.7456 36.5508 17.4741 35.9691C17.3678 35.7414 17.2183 34.046 17.1422 32.2019C17.0117 29.0435 17.0359 28.8234 17.5602 28.4089C18.1139 27.9711 22.3145 27.0433 23.0044 27.2066C23.2033 27.2538 23.4738 27.2923 23.6054 27.2923ZM15.5011 28.2587C15.9744 28.7736 16.0108 29.0648 15.8434 30.9973C15.7404 32.1868 15.5403 33.2677 15.3987 33.3994C15.2573 33.5311 13.7098 33.6743 11.9603 33.7179L8.77917 33.7969L8.91508 31.1673C9.09992 27.5934 9.25269 27.4425 12.5551 27.5812C14.7063 27.6715 15.0298 27.7459 15.5011 28.2587ZM15.4568 34.725C16.1867 35.0691 16.1304 35.2803 14.9309 36.7027C14.3111 37.4377 13.8115 38.3408 13.7147 38.9022C13.4619 40.3664 12.7609 40.979 10.3106 41.8769C9.08905 42.3247 8.02485 42.6337 7.94575 42.564C7.80549 42.4404 8.52963 35.6817 8.69599 35.5615C8.78759 35.4952 14.0009 34.5626 14.5734 34.5099C14.7699 34.4919 15.1676 34.5887 15.4568 34.725ZM34.9084 36.7276C35.3839 37.2054 35.5524 37.2538 35.8598 37.0009C36.1664 36.7487 36.9254 36.8924 40.084 37.8005C44.9045 39.1867 46.1221 39.8853 46.604 41.5426C46.9979 42.8969 47.4119 46.7623 47.656 51.3612L47.8212 54.4746L47.1028 53.3969C46.7078 52.8042 45.5072 51.5104 44.4351 50.5218C43.3628 49.533 41.9077 48.1858 41.2015 47.5282C40.495 46.8703 39.4061 45.9547 38.7817 45.4937C38.157 45.0327 37.3021 44.1705 36.8819 43.5778L36.1175 42.5001L37.3309 41.5833C38.4824 40.7132 38.8097 40.1583 38.3266 39.8953C38.2073 39.8302 37.5949 40.1356 36.9662 40.5741C35.1686 41.8271 34.589 41.8563 33.4175 40.7515C32.3973 39.79 31.5424 39.4477 27.848 38.5209C26.6748 38.2266 25.6487 37.8338 25.5679 37.6484C25.3483 37.1443 26.4027 36.3494 27.5822 36.1298C28.1544 36.0233 29.9068 35.9835 31.4766 36.0415C34.0802 36.1377 34.3816 36.1978 34.9084 36.7276ZM20.0072 38.4234C20.5634 38.8866 20.5965 39.0186 20.3005 39.591C19.9257 40.3159 19.0661 40.5954 17.9533 40.3545C15.9225 39.9145 15.4555 38.8976 16.6904 37.6046L17.3979 36.8636L18.3893 37.3824C18.9343 37.6678 19.6625 38.1363 20.0072 38.4234ZM24.1294 37.5811C24.3493 37.7038 24.4469 37.8767 24.3461 37.9655C24.0906 38.1904 22.7782 37.8728 22.7782 37.5859C22.7782 37.2897 23.6013 37.2868 24.1294 37.5811ZM15.5928 40.6675C15.9461 40.8092 17.2305 41.1031 18.4472 41.3203L20.6593 41.7152L21.9722 40.576L23.2852 39.4365L26.2934 39.863C29.6173 40.3341 29.6502 40.3612 28.7584 41.9013C28.4594 42.4177 28.2191 43.0332 28.2245 43.2688C28.2321 43.6056 28.3775 43.5435 28.9027 42.979C29.6804 42.1432 29.7299 42.2323 29.1582 43.4377C28.8994 43.9837 28.8309 44.4529 28.9769 44.6825C29.1767 44.9972 29.3387 44.9568 30.0816 44.4057C30.5606 44.0508 31.1347 43.4496 31.3576 43.0703C31.7183 42.4555 31.7172 42.3803 31.3478 42.3803C31.1197 42.3803 30.933 42.2941 30.933 42.1887C30.933 41.8424 31.5756 41.4223 32.1048 41.4223C32.6354 41.4223 32.636 41.8199 32.1081 43.7574C31.8833 44.5829 32.4473 44.3975 32.9393 43.4844L33.3764 42.6727L39.1117 47.7353L44.8469 52.7982L44.6961 55.0734L44.5452 57.3485L45.2579 56.6317L45.9709 55.9149L45.776 59.3825C45.508 64.1544 44.8298 68.6322 43.6857 73.1832C43.1621 75.2663 43.0844 75.3997 41.9957 76.0849C38.8118 78.0882 36.239 78.5102 32.7947 77.5942C30.3771 76.9514 27.742 75.7554 27.2631 75.0841C27.0703 74.8134 26.2135 72.0265 25.3595 68.8911L23.8065 63.1902L26.0733 58.4133C27.8352 54.7002 28.4498 53.6364 28.832 53.6364C29.7674 53.6364 31.5266 54.6293 32.9937 55.9853C33.9867 56.9031 34.4667 57.2103 34.4667 56.9285C34.4667 56.2732 34.9902 56.4375 35.4988 57.2523C36.2915 58.5228 36.933 59.1447 37.4511 59.1447C37.8972 59.1447 37.9184 59.0547 37.6511 58.2883C37.1934 56.9742 35.4189 55.3854 32.5694 53.7382C29.5029 51.9652 28.7165 51.3972 27.81 50.2991C27.1973 49.5567 27.1687 49.4252 27.5186 48.9551C27.9056 48.4347 27.9035 48.4339 26.0896 48.5443C23.9413 48.6746 22.1386 48.1657 19.5704 46.7031C15.9874 44.6629 14.3402 42.6857 14.3725 40.4644C14.3861 39.5471 14.4302 39.4628 14.6696 39.8982C14.824 40.1796 15.2397 40.5257 15.5928 40.6675ZM14.0327 43.8771C14.6411 44.5685 16.0016 45.886 17.0557 46.8044C18.1101 47.7229 18.9726 48.5317 18.9726 48.6013C18.9726 48.671 17.8413 48.762 16.4582 48.8032C13.1558 48.9017 10.2487 49.4302 8.23551 50.2979L6.60456 51.0008L8.23551 50.8614C9.13254 50.7848 11.3955 50.4452 13.2643 50.1068C17.8272 49.281 21.8233 49.2279 23.6513 49.9688C25.323 50.6466 26.8556 51.7351 26.8556 52.2452C26.8556 52.7177 26.5691 52.9055 25.089 53.4036C23.7951 53.8393 23.5885 54.5175 24.7875 54.3932C25.3567 54.3343 25.5353 54.4002 25.435 54.6327C24.5437 56.6986 22.7138 62.1015 22.455 63.4309C22.1897 64.7943 22.1927 65.3387 22.4705 66.1515C22.6616 66.7105 23.3572 68.9449 24.0166 71.1174C25.4837 75.951 26.0594 77.5856 26.2948 77.5856C26.394 77.5856 26.6096 77.467 26.7738 77.3224C27.1687 76.9744 28.2147 77.2792 28.2147 77.7422C28.2147 77.9422 27.86 78.5548 27.4264 79.1032C26.677 80.0514 26.6311 80.2585 26.4873 83.3334C26.3413 86.4578 25.7248 90.3251 25.5709 89.0811C25.5302 88.7518 25.7153 86.3541 25.9822 83.7525C26.2489 81.1509 26.3957 79.0225 26.3081 79.0225C25.824 79.0225 25.4959 79.7398 25.4916 80.8067C25.4888 81.472 25.2464 83.956 24.9528 86.327C24.6592 88.698 24.4168 91.6502 24.414 92.8874L24.4092 95.1369L22.3025 95.0009C19.9982 94.8522 16.1217 94.0219 13.0525 93.0196C11.2365 92.4266 11.0897 92.3267 11.0897 91.6856C11.0897 90.9492 12.4562 82.0693 12.5893 81.9395C12.6326 81.8974 13.1909 82.0981 13.8302 82.3854C14.846 82.8419 15.303 82.8932 17.4583 82.7926C19.4334 82.7004 20.3413 82.5231 22.022 81.9014C24.0615 81.1468 24.9041 80.3979 24.1659 79.996C23.9772 79.8933 24.1699 79.6327 24.6804 79.3003C25.1292 79.0079 25.4965 78.6161 25.4965 78.4298C25.4965 78.1678 25.1733 78.2214 24.0694 78.6664C21.4715 79.7137 19.3804 80.0533 16.356 79.9184C14.8422 79.8509 13.2662 79.6485 12.8538 79.4689C11.9976 79.0958 10.2854 76.7212 9.43834 74.7323C8.18441 71.7877 6.48441 65.7322 5.93043 62.237C4.96735 56.1597 5.21879 49.7528 6.55889 46.2122L7.14821 44.6555L8.77917 44.1149C9.67619 43.8175 10.8382 43.3713 11.3615 43.123C11.8848 42.8749 12.451 42.66 12.6195 42.6457C12.7883 42.6315 13.4241 43.1857 14.0327 43.8771ZM17.7029 56.8264C14.8692 58.4121 14.6884 58.5845 16.5262 57.9506C18.5412 57.2554 19.5106 56.7357 19.9939 56.0912C20.5799 55.31 20.1893 55.4352 17.7029 56.8264ZM4.20787 59.4292C4.12116 59.6201 4.05674 59.5633 4.04369 59.2843C4.032 59.0319 4.09615 58.8906 4.1864 58.9701C4.27664 59.0496 4.28643 59.2563 4.20787 59.4292ZM28.3968 81.9563C28.0739 85.6976 26.7827 94.9492 26.552 95.1721C26.425 95.2952 26.251 95.334 26.1654 95.2586C25.7881 94.9262 27.994 79.9805 28.4205 79.9805C28.5012 79.9805 28.4903 80.8695 28.3968 81.9563ZM31.1768 80.789C31.4359 81.0639 31.6571 81.067 32.5077 80.8089C33.1989 80.5991 34.1449 80.5507 35.4396 80.659L37.3508 80.8187L36.3643 87.1422C35.3972 93.3434 35.3632 93.4761 34.6108 94.0046C33.7056 94.6405 32.7958 94.8289 30.6323 94.8289C29.1278 94.8289 29.0291 94.7928 28.8315 94.1703C28.5001 93.1259 28.654 88.7238 29.1226 85.848C29.3586 84.3991 29.632 82.594 29.7301 81.8365C29.872 80.7404 30.006 80.4594 30.3874 80.4594C30.6508 80.4594 31.0061 80.6077 31.1768 80.789ZM38.5044 83.956C38.328 84.9966 38.1263 85.6971 38.0559 85.5127C37.9148 85.143 38.5321 81.8059 38.7124 81.9647C38.7741 82.0193 38.6806 82.9152 38.5044 83.956ZM37.9143 86.4918C37.8276 86.6826 37.7631 86.6259 37.7501 86.3469C37.7384 86.0945 37.8026 85.9531 37.8928 86.0327C37.9831 86.1122 37.9928 86.3188 37.9143 86.4918ZM5.86672e-06 90.8773C0.000277693 92.2772 0.0375178 92.4156 0.225078 91.7156C0.348487 91.2545 0.348487 90.5001 0.224534 90.0391C0.0364305 89.3391 -0.000537785 89.477 5.86672e-06 90.8773Z" fill="white"/>
</svg>
