<svg width="339" height="529" viewBox="0 0 339 529" fill="none" xmlns="http://www.w3.org/2000/svg">
<path fill-rule="evenodd" clip-rule="evenodd" d="M193.999 0.813125C173.9 5.01912 166.322 7.21312 162.564 9.91712C157.609 13.4821 153.748 19.4931 151.627 26.9431C148.401 38.2761 144.563 40.6701 127.636 41.9051C115.353 42.8021 111.217 43.5991 106.888 45.9041C95.332 52.0561 78.672 73.6061 76.191 85.6111C75.578 88.5731 74.906 89.4141 72.958 89.6551C63.006 90.8861 49.092 99.1131 41.807 108.074C39.895 110.426 32.506 121.126 25.387 131.851C12.824 150.778 12.35 151.689 9.253 162.851C2.103 188.624 -0.000999644 204.532 3.56255e-07 232.813C0.00100036 263.035 1.796 279.558 8.586 311.851C16.002 347.122 21.702 365.802 27.986 375.428C39.022 392.334 40.369 400.329 40.442 449.351C40.51 494.495 39.685 491.282 52.868 497.773C57.615 500.11 66.899 505.091 73.499 508.842C102.282 525.198 118.678 529.761 144.096 528.489C170.6 527.163 191.844 521.491 205.676 512.05C212.251 507.562 224.292 495.453 228.417 489.18L231.16 485.009L229.917 464.18L228.673 443.351L232.909 418.351C237.755 389.745 239.711 384.035 246.802 377.793C249.265 375.625 251.627 373.851 252.05 373.851C252.769 373.851 295.917 315.08 308.214 297.351C319.805 280.64 331.1 259.663 336.482 244.851C339.031 237.834 339.166 236.652 338.579 226.503C337.58 209.231 336.3 202.153 328.518 170.851L321.184 141.351L322.563 134.351C324.921 122.39 325.988 102.096 325.019 87.6441C323.393 63.4021 317.281 40.5611 307.472 22.0681L302.326 12.3651L292.912 9.93412C285.053 7.90512 281.022 7.49512 268.499 7.45212C255.094 7.40612 252.884 7.64612 247.717 9.71012C244.536 10.9801 240.036 13.4721 237.717 15.2491L233.499 18.4781L230.407 12.9151C226.74 6.31512 221.079 2.37212 213.113 0.868121C207.092 -0.268879 199.277 -0.290875 193.999 0.813125ZM211.711 11.9571C216.75 14.3921 220.259 19.5451 219.814 23.8561L219.499 26.9141L210.499 27.2361C199.715 27.6211 191.634 30.3791 185.776 35.6721C181.317 39.7001 171.283 58.6261 168.463 68.3271C165.084 79.9481 166.873 84.7561 187.074 118.351C193.358 128.801 198.649 137.689 198.832 138.101C199.016 138.513 193.953 138.851 187.582 138.851C179.975 138.851 175.999 139.221 175.999 139.928C175.999 141.976 181.84 146.851 184.294 146.851C185.641 146.851 191.188 145.71 196.621 144.315C207.787 141.449 211.445 141.673 215.992 145.499C221.075 149.776 221.183 150.492 218.981 165.474C217.87 173.036 216.766 179.417 216.528 179.655C216.291 179.893 215.802 178.914 215.442 177.48C214.553 173.938 208.893 169.169 204.022 167.857C201.797 167.258 197.683 167.072 194.759 167.437C189.945 168.039 189.012 168.613 183.757 174.196C176.338 182.08 176.967 182.902 191.201 183.922C196.865 184.328 202.706 185.211 204.181 185.885C207.406 187.358 209.26 191.393 208.821 195.982C208.362 200.788 202.168 203.851 192.912 203.851C185.42 203.851 179.999 202.994 179.999 201.809C179.999 201.373 179.089 198.894 177.977 196.299C176.068 191.847 175.853 191.673 174.148 193.216C173.154 194.115 172.091 194.851 171.785 194.851C171.48 194.851 170.954 192.488 170.617 189.601C170.28 186.714 167.562 164.326 164.578 139.851C152.681 42.2771 153.713 53.5361 155.538 41.2421C157.448 28.3821 159.79 22.4111 164.811 17.6071C168.236 14.3301 169.389 13.9231 180.999 11.9011C187.874 10.7041 194.174 9.55512 194.999 9.34912C198.227 8.54412 207.71 10.0241 211.711 11.9571ZM287.934 15.8111C295.634 18.0671 301.045 26.3631 305.051 42.0551C307.137 50.2261 308.929 67.3661 308.975 79.5991L308.999 85.8471L302.749 81.2341C299.312 78.6971 287.949 72.4201 277.499 67.2851C257.915 57.6611 249.739 52.7651 242.059 46.0631L237.619 42.1881L238.892 35.0631C239.592 31.1441 241.14 26.0321 242.332 23.7031C245.647 17.2241 248.785 15.4581 258.316 14.7031C268.407 13.9051 283.334 14.4631 287.934 15.8111ZM215.761 38.7831C220.288 40.0811 224.977 44.1941 233.582 54.4161L240.981 63.2061L238.358 67.7781C236.916 70.2931 234.826 73.8661 233.714 75.7171L231.692 79.0831L234.096 78.2941C240.593 76.1601 242.203 77.7651 238.737 82.9191C236.541 86.1841 236.106 86.3651 229.779 86.6451C217.879 87.1721 203.799 82.1231 192.736 73.3641C186.154 68.1531 186.207 68.7511 191.165 55.6951C194.348 47.3121 200.414 40.4651 205.69 39.2971C207.235 38.9561 208.949 38.5261 209.499 38.3421C211.274 37.7501 212.45 37.8331 215.761 38.7831ZM138.846 52.1941C142.153 55.2331 144.433 60.0671 147.431 70.3991C154.417 94.4691 158.379 130.845 159.671 182.771C160.312 208.538 160.281 209.172 158.414 208.406C151.44 205.545 144.313 205.716 137.999 208.894C134.901 210.454 133.877 212.108 129.079 223.3C126.098 230.254 123.296 236.167 122.854 236.441C122.411 236.714 120.701 235.456 119.053 233.645C116.297 230.614 116.054 229.752 116.013 222.851C115.95 212.251 114.227 187.736 112.43 171.851C108.669 138.608 101.034 113.129 88.757 92.8541C85.344 87.2181 84.905 85.8251 85.441 82.3541C87.171 71.1641 95.721 61.3771 110.67 53.4751L119.499 48.8091L127.999 49.4231C134.764 49.9121 136.978 50.4781 138.846 52.1941ZM182.703 75.2761C194.577 89.3881 217.05 98.9161 231.347 95.9021C239.615 94.1581 243.719 90.1251 249.517 78.0461C252.076 72.7141 254.305 68.2141 254.471 68.0481C254.637 67.8811 264.048 72.3761 275.386 78.0361C294.217 87.4391 295.999 88.5511 295.999 90.9081C295.999 95.8691 293.037 103.433 289.774 106.804C286.2 110.496 267.116 123.301 266.341 122.526C266.077 122.263 269.268 117.263 273.43 111.415C281.294 100.369 281.592 99.8511 280.089 99.8511C277.465 99.8511 268.775 108.5 264.142 115.722C258.371 124.719 258.394 125.527 264.53 129.732C267.142 131.522 268.56 131.836 271.518 131.281C277.264 130.203 289.147 121.646 295.679 113.882C298.88 110.077 301.81 107.276 302.189 107.658C303.119 108.592 310.073 132.715 313.342 146.351C318.796 169.098 329.999 221.241 329.999 223.881C329.999 229.426 324.772 244.691 318.538 257.351C310.293 274.097 304.129 283.459 280.041 315.822C269.182 330.413 257.389 346.626 253.836 351.851L247.376 361.351L234.438 367.906C215.603 377.449 209.028 379.368 195.499 379.275C181.31 379.178 176.375 377.304 162.459 366.728L151.999 358.779L152.005 362.065C152.008 363.872 152.458 366.962 153.005 368.931C154.314 373.645 164.357 384.654 169.464 386.974L173.499 388.807L169.249 388.829C164.33 388.854 163.792 390.359 166.884 395.431C169.31 399.407 172.044 400.399 185.999 402.362C192.324 403.251 197.854 404.328 198.289 404.755C198.723 405.182 198.161 415.268 197.039 427.169C194.563 453.432 194.426 471.694 196.634 481.351C199.221 492.674 199.527 491.905 189.111 500.242C180.13 507.432 173.411 510.851 168.266 510.851C162.688 510.851 156.872 489.012 156.681 467.351C156.586 456.58 158.963 421.974 161.63 395.291C162.416 387.431 160.774 385.391 154.256 386.126C145.357 387.129 140.914 395.082 138.436 414.445C136.001 433.467 134.895 433.979 135.402 415.851C135.687 405.67 136.375 398.635 137.407 395.351C138.271 392.601 138.982 389.789 138.988 389.101C139.008 386.827 134.62 387.801 128.878 391.345C122.286 395.414 104.923 399.632 90.964 400.555C70.698 401.895 50.89 393.44 41.648 379.506C35.008 369.493 29.418 352.665 21.498 318.851C14.427 288.66 11.54 271.645 9.924 250.634C8.816 236.232 8.918 211.597 10.09 210.426C11.223 209.294 41.541 207.527 47.261 208.26C54.148 209.142 53.651 208.391 62.194 230.824C70 251.321 73.695 256.8 82.499 260.93C87.855 263.443 96.332 263.46 99.845 260.965C101.305 259.928 104.299 258.331 106.499 257.415C108.699 256.499 111.957 254.339 113.739 252.614L116.978 249.479L129.239 252.793C135.982 254.615 141.818 256.39 142.208 256.737C142.598 257.085 141.1 262.99 138.879 269.86C136.256 277.978 134.645 285.064 134.278 290.101C133.494 300.86 131.67 300.412 130.345 289.134L129.693 283.588L128.165 286.469C124.977 292.481 125.79 324.472 129.317 331.81C130.392 334.047 145.031 347.152 145.703 346.48C145.861 346.323 145.351 341.054 144.571 334.773C142.301 316.492 141.844 305.025 142.979 294.851C144.859 278.017 145.022 277.705 164.71 253.305C174.494 241.179 184.454 228.949 186.844 226.127C192.159 219.851 200.733 213.019 207.74 209.476C213.261 206.685 225.446 203.425 227.465 204.199C228.118 204.45 229.658 207.717 230.887 211.458C238.467 234.55 245.986 246.589 254.117 248.653C256.252 249.195 257.999 249.409 257.999 249.129C257.999 248.849 256.027 245.634 253.616 241.985C247.32 232.456 243.362 224.135 240.612 214.644C237.96 205.493 235.591 188.711 236.533 185.744C237.272 183.415 242.555 183.201 245.44 185.383C247.927 187.264 250.421 187.252 251.997 185.353C253.019 184.122 252.73 183.221 250.369 180.282C237.987 164.863 236.049 158.982 242.467 156.3C244.374 155.503 247.862 154.84 250.217 154.827C254.659 154.802 261.725 153.458 262.739 152.445C263.655 151.529 260.145 148.148 256.465 146.402C254.621 145.527 247.8 144.131 241.306 143.3C224.23 141.114 220.318 138.971 205.374 123.614C198.81 116.869 191.471 108.876 189.065 105.851C179.842 94.2591 175.407 79.0871 178.062 68.2131L179.493 62.3511L179.808 67.2801C180.034 70.8071 180.857 73.0821 182.703 75.2761ZM87.309 112.101C99.831 139.162 104.769 163.294 105.274 199.901L105.499 216.181L102.603 216.969C95.625 218.866 89.569 229.869 88.363 242.842C87.638 250.649 86.91 251.197 81.617 247.921C75.95 244.415 72.584 236.82 62.97 205.851C57.933 189.626 52.392 173.664 50.656 170.379C46.818 163.119 38.946 155.024 33.214 152.445C30.885 151.396 28.729 150.787 28.425 151.092C28.12 151.397 29.48 154.842 31.447 158.749C33.415 162.655 34.585 165.851 34.049 165.851C31.948 165.851 22.37 161.697 20.112 159.806L17.724 157.808L22.612 148.213C27.496 138.624 38.647 124.851 41.525 124.851C42.262 124.851 43.15 125.751 43.499 126.851C44.66 130.509 45.693 128.929 47.446 120.814C49.134 113.004 49.328 112.667 54.341 108.887C64.702 101.074 71.042 97.8511 76.048 97.8511H80.715L87.309 112.101ZM297.992 118.868C296.199 123.197 286.965 131.256 280.038 134.538C273.579 137.597 272.571 138.851 276.57 138.851C279.062 138.851 284.785 134.766 293.334 126.886C297.199 123.323 301.808 115.851 300.141 115.851C299.646 115.851 298.679 117.209 297.992 118.868ZM41.619 179.338C45.951 182.176 49.133 188.238 49.727 194.784L50.277 200.851H30.002H9.727L10.3 196.601C10.615 194.263 11.389 187.401 12.019 181.351C12.649 175.301 13.321 169.831 13.514 169.196C13.879 167.988 37.067 176.355 41.619 179.338ZM127.999 180.396C127.999 181.246 129.104 183.046 130.454 184.396C134.867 188.81 145.57 187.285 150.923 181.48L153.348 178.851H140.673C129.908 178.851 127.999 179.084 127.999 180.396ZM89.286 196.264C78.757 198.51 75.484 199.857 80.582 199.843C86.222 199.829 96.297 197.745 99.879 195.852C104.558 193.38 102.413 193.463 89.286 196.264ZM147.017 213.748C151.118 215.584 151.182 215.683 149.021 216.839C146.611 218.129 140.483 217.444 139.448 215.768C138.8 214.72 140.678 211.851 142.012 211.851C142.435 211.851 144.687 212.705 147.017 213.748ZM176.849 221.17C177.801 222.317 177.546 222.918 175.552 224.225C172.128 226.468 171.999 226.38 171.999 221.816C171.999 218.214 172.196 217.886 173.831 218.761C174.839 219.301 176.197 220.384 176.849 221.17ZM156.031 223.868C158.239 225.05 160.408 232.087 159.58 235.384C159.142 237.13 157.843 237.929 153.909 238.873C148.264 240.227 133.515 239.767 131.936 238.188C130.627 236.879 132.696 226.951 134.767 224.601C136.018 223.181 137.988 222.851 145.22 222.851C150.121 222.851 154.986 223.309 156.031 223.868ZM104.749 232.481C106.531 232.959 106.999 233.802 106.999 236.533C106.999 242.311 104.462 245.807 100.249 245.836C98.128 245.85 97.999 245.448 97.999 238.851C97.999 231.266 98.489 230.804 104.749 232.481ZM191.249 390.84C197.089 390.851 199.275 392.453 194.249 393.038C190.577 393.466 181.081 392.03 179.091 390.747C177.916 389.989 178.548 389.866 181.499 390.275C183.699 390.58 188.087 390.834 191.249 390.84ZM53.888 406.601C55.208 407.696 56.376 410.389 57.009 413.792C58.144 419.903 60.073 423.422 62.752 424.273C63.746 424.588 74.923 423.55 87.591 421.966C108.874 419.304 111.218 418.81 118.469 415.46C122.785 413.466 126.409 411.951 126.522 412.093C126.635 412.235 127.035 435.639 127.411 464.101C128.075 514.399 128.041 515.851 126.207 515.851C119.434 515.851 99.777 508.742 81.999 499.863C76.774 497.253 68.111 493.194 62.749 490.842L52.999 486.565V477.788C52.999 466.124 51.311 442.644 49.033 422.618C48.016 413.677 47.393 406.022 47.65 405.606C48.471 404.278 51.71 404.795 53.888 406.601ZM207.959 428.851C206.946 441.776 205.682 458.651 205.15 466.351C204.251 479.364 204.204 478.518 204.486 454.351C204.757 431.055 206.333 412.333 208.56 405.958C209.792 402.43 209.672 406.989 207.959 428.851ZM148.629 443.601C148.582 483.725 149.163 490.295 154.005 504.37C155.102 507.557 155.999 510.526 155.999 510.969C155.999 511.746 151.591 513.183 145.428 514.415L142.465 515.008L141.232 507.171C139.736 497.661 139.62 466.443 141.025 451.351C142.391 436.679 147.4 405.851 148.419 405.851C148.558 405.851 148.653 422.839 148.629 443.601Z" fill="white"/>
</svg>
