<svg width="186" height="50" viewBox="0 0 186 50" fill="none" xmlns="http://www.w3.org/2000/svg">
<path d="M14.4301 48.75H9.76659e-05V43.615H5.3301C8.3201 36.465 11.3101 29.4017 14.3001 22.425C17.3334 15.405 20.3451 8.32 23.3351 1.17C26.3251 8.32 29.3151 15.405 32.3051 22.425C35.3384 29.4017 38.3501 36.465 41.3401 43.615H46.6701V48.75H32.2401V43.615H35.8801C34.9701 41.4483 34.0601 39.3033 33.1501 37.18C32.2834 35.0567 31.3951 32.9117 30.4851 30.745H16.1851C14.9718 33.605 14.0618 35.75 13.4551 37.18C12.8484 38.61 11.9384 40.755 10.7251 43.615H14.4301V48.75ZM22.6201 15.275C21.8401 16.965 21.0818 18.7417 20.3451 20.605C19.6518 22.425 19.0018 24.0933 18.3951 25.61H28.2751L23.9201 15.275L23.2701 13.13C23.0968 13.8233 22.9451 14.3217 22.8151 14.625C22.7284 14.9283 22.6634 15.145 22.6201 15.275ZM74.8207 45.89C73.564 46.9733 72.1124 47.8183 70.4657 48.425C68.819 48.9883 67.0857 49.27 65.2657 49.27C63.619 49.27 62.0157 49.0967 60.4557 48.75C58.8957 48.36 57.4657 47.8617 56.1657 47.255C54.8657 46.6483 53.6957 45.955 52.6557 45.175C51.659 44.395 50.879 43.5717 50.3157 42.705V35.165H55.4507V40.95C56.5774 41.8167 57.9207 42.575 59.4807 43.225C61.0407 43.8317 62.7957 44.135 64.7457 44.135C65.8724 44.135 66.9557 43.9833 67.9957 43.68C69.0357 43.3333 69.9674 42.8567 70.7907 42.25C71.5707 41.6 72.199 40.7983 72.6757 39.845C73.1524 38.8917 73.3907 37.7867 73.3907 36.53C73.3907 35.75 73.3257 34.97 73.1957 34.19C73.109 33.41 72.8924 32.7383 72.5457 32.175C71.9824 31.265 71.3107 30.55 70.5307 30.03C69.794 29.4667 68.9274 28.9467 67.9307 28.47C66.3707 27.82 64.6807 27.2567 62.8607 26.78C61.0407 26.3033 59.3507 25.6533 57.7907 24.83C56.1874 24.0067 54.844 22.8583 53.7607 21.385C52.7207 19.9117 52.179 17.8317 52.1357 15.145C52.0924 13.715 52.2874 12.285 52.7207 10.855C53.154 9.425 53.869 8.125 54.8657 6.955C55.8624 5.785 57.184 4.83167 58.8307 4.095C60.4774 3.35833 62.4924 2.99 64.8757 2.99C65.6557 2.99 66.5007 3.03333 67.4107 3.12C68.3207 3.20666 69.274 3.38 70.2707 3.64C71.2674 3.9 72.2857 4.29 73.3257 4.81C74.409 5.33 75.4707 6.02333 76.5107 6.89V13.26H71.3757V9.425C70.5524 9.07833 69.599 8.775 68.5157 8.515C67.4324 8.255 66.2407 8.125 64.9407 8.125C63.6407 8.125 62.514 8.34167 61.5607 8.775C60.6074 9.165 59.8274 9.70667 59.2207 10.4C58.6574 11.05 58.224 11.8083 57.9207 12.675C57.6607 13.4983 57.5307 14.3867 57.5307 15.34C57.5307 16.64 57.834 17.7017 58.4407 18.525C59.0474 19.305 59.849 19.9767 60.8457 20.54C62.4057 21.3633 64.269 22.1 66.4357 22.75C68.6024 23.3567 70.6824 24.1367 72.6757 25.09C74.4957 25.9567 75.969 27.3 77.0957 29.12C78.2224 30.94 78.7857 33.4317 78.7857 36.595C78.7857 38.545 78.4174 40.3 77.6807 41.86C76.9874 43.42 76.034 44.7633 74.8207 45.89ZM114.831 48.75H82.2657V43.615H85.9057V8.385H82.2657V3.25H96.6957V8.385H91.3007V43.615H109.696V38.74H114.831V48.75ZM150.405 48.75H140.72V47.45C140.72 47.1467 140.72 46.93 140.72 46.8C140.72 46.67 140.72 46.4533 140.72 46.15C140.676 46.28 140.46 46.5183 140.07 46.865C139.68 47.2117 139.138 47.5583 138.445 47.905C137.708 48.295 136.841 48.62 135.845 48.88C134.848 49.1833 133.721 49.335 132.465 49.335C130.645 49.335 128.933 49.01 127.33 48.36C125.726 47.6667 124.34 46.735 123.17 45.565C122 44.395 121.068 43.0517 120.375 41.535C119.725 39.975 119.4 38.3283 119.4 36.595C119.4 34.905 119.725 33.28 120.375 31.72C121.068 30.16 122 28.795 123.17 27.625C124.34 26.455 125.726 25.5233 127.33 24.83C128.933 24.1367 130.645 23.79 132.465 23.79C134.848 23.79 136.733 24.2233 138.12 25.09C139.506 25.9133 140.373 26.6933 140.72 27.43C140.763 26.9967 140.806 26.52 140.85 26C140.936 25.4367 140.98 24.895 140.98 24.375H145.465V43.615H150.405V48.75ZM132.465 29.055C131.295 29.055 130.211 29.2717 129.215 29.705C128.218 30.095 127.395 30.6583 126.745 31.395C126.138 32.045 125.661 32.8033 125.315 33.67C125.011 34.5367 124.86 35.49 124.86 36.53C124.86 37.7433 125.098 38.87 125.575 39.91C126.095 40.95 126.788 41.8167 127.655 42.51C128.261 42.9867 128.976 43.3767 129.8 43.68C130.623 43.94 131.511 44.07 132.465 44.07C133.548 44.07 134.523 43.8967 135.39 43.55C136.3 43.2033 137.08 42.7267 137.73 42.12C138.466 41.4267 139.03 40.6033 139.42 39.65C139.853 38.6967 140.07 37.6567 140.07 36.53C140.07 35.4033 139.853 34.3633 139.42 33.41C139.03 32.4567 138.488 31.655 137.795 31.005C137.101 30.3983 136.3 29.9217 135.39 29.575C134.523 29.2283 133.548 29.055 132.465 29.055ZM154.946 48.75V43.615H159.886V5.135H155.596V-3.8743e-06H165.281V25.22C165.281 25.5233 165.26 25.805 165.216 26.065C165.216 26.2817 165.173 26.5633 165.086 26.91C165.13 26.78 165.303 26.585 165.606 26.325C165.91 26.0217 166.43 25.675 167.166 25.285C167.903 24.895 168.748 24.5483 169.701 24.245C170.698 23.9417 171.76 23.79 172.886 23.79C174.706 23.79 176.418 24.1367 178.021 24.83C179.625 25.48 181.011 26.39 182.181 27.56C183.351 28.73 184.261 30.095 184.911 31.655C185.605 33.1717 185.951 34.7967 185.951 36.53C185.951 38.2633 185.605 39.91 184.911 41.47C184.261 43.03 183.351 44.395 182.181 45.565C181.011 46.735 179.625 47.6667 178.021 48.36C176.418 49.01 174.706 49.335 172.886 49.335C171.63 49.335 170.503 49.1833 169.506 48.88C168.51 48.62 167.665 48.295 166.971 47.905C166.235 47.5583 165.671 47.2117 165.281 46.865C164.891 46.5183 164.675 46.28 164.631 46.15C164.631 46.4533 164.631 46.67 164.631 46.8C164.631 46.93 164.631 47.1467 164.631 47.45V48.75H154.946ZM172.886 29.055C171.673 29.055 170.568 29.2717 169.571 29.705C168.618 30.095 167.816 30.6583 167.166 31.395C166.56 32.045 166.083 32.825 165.736 33.735C165.433 34.6017 165.281 35.5333 165.281 36.53C165.281 37.6567 165.476 38.7183 165.866 39.715C166.3 40.6683 166.885 41.4917 167.621 42.185C168.315 42.7483 169.095 43.2033 169.961 43.55C170.871 43.8967 171.846 44.07 172.886 44.07C174.013 44.07 175.031 43.8967 175.941 43.55C176.851 43.16 177.653 42.64 178.346 41.99C178.996 41.2967 179.516 40.495 179.906 39.585C180.296 38.6317 180.491 37.6133 180.491 36.53C180.491 35.36 180.275 34.2983 179.841 33.345C179.408 32.3483 178.823 31.525 178.086 30.875C177.436 30.3117 176.656 29.8783 175.746 29.575C174.88 29.2283 173.926 29.055 172.886 29.055Z" fill="#FF0000"/>
</svg>
