<svg width="199" height="48" viewBox="0 0 199 48" fill="none" xmlns="http://www.w3.org/2000/svg">
<path d="M-8.39308e-05 24.676L5.70392 21.762L5.95192 19.654L12.9579 17.174L13.3919 16.058L23.9319 16.802L28.0859 20.46H34.5959L40.1759 27.528L30.2559 37.014L29.4499 43.772L21.3899 46.624L15.0659 45.446L12.2139 46.314L4.40192 39.37L5.14592 34.782L-8.39308e-05 30.194V24.676ZM7.62592 21.08V26.908L9.91992 27.094L8.36992 28.706L10.8499 31.682L12.4619 31.93L11.7179 32.488L13.3919 34.782L11.0979 25.978L12.7719 19.282L7.62592 21.08ZM23.6839 18.538L15.0659 17.608L12.7719 25.854L16.4299 25.978L13.3919 27.094L14.0119 31.124L19.2819 31.682L14.6939 33.232L16.4299 35.898L20.7699 33.852L21.7619 28.83L23.3119 27.094L20.7699 19.654L24.2419 25.606L27.0939 21.514L23.6839 18.538ZM12.4619 44.702H13.3919L11.7179 41.478L16.2439 44.702L21.3899 45.074L27.5279 42.408L28.8919 37.324L38.6259 27.094L38.0059 26.598L34.4099 22.382L28.8919 21.39L25.2339 27.342L22.8779 29.636L22.6919 32.302L21.0179 41.602V35.526L17.1739 37.758L14.5699 36.084L14.1359 36.704L12.0279 35.774L8.86592 37.324L6.13792 35.34L5.95192 38.626L12.4619 44.702ZM1.67392 28.458L4.02992 28.706L2.66592 30.07L6.44792 33.232L7.87392 33.046L7.25392 34.162L8.86592 35.34L10.7259 34.162L5.95192 28.272V23.312L1.54992 25.234L1.67392 28.458ZM34.1619 28.272L30.2559 24.676L37.2619 27.342L34.1619 28.272ZM73.6767 26.226L76.5287 30.318L75.7227 37.882L72.4367 43.4L65.2447 47.492L58.0527 45.26L51.9147 44.826L45.7767 40.114L46.0247 36.27L42.9247 33.17L43.5447 24.18L49.0627 20.894L52.3487 16.802L58.6727 17.174L60.1607 15.562L71.3827 17.608L73.6767 26.226ZM61.1527 17.608L57.4947 21.328L58.9207 21.886L68.5307 22.134L71.6307 24.552L70.1427 18.848L61.1527 17.608ZM50.7367 21.514L49.4967 24.552L50.9227 28.892L51.1087 25.978L51.5427 23.56L55.2007 21.886L57.2467 18.414L53.1547 18.228L50.7367 21.514ZM54.3947 35.402L57.8667 34.844L55.6347 36.27L56.6267 37.262L59.1067 36.642L59.2927 35.216L58.0527 33.17L54.2087 31.558L52.5347 31.124L52.9687 32.984L54.3947 35.402ZM45.1567 33.356L47.4507 35.03L51.2947 34.224L48.8767 35.402L50.9227 36.642L52.3487 36.022L52.5347 34.41L50.7367 31.93L48.8767 28.892L48.2567 25.172L47.6367 23.746L44.9707 25.42L44.5367 31.744L47.8227 32.798L45.1567 33.356ZM74.0487 37.696L74.6687 30.318L68.5307 23.746H58.0527L55.8207 24.366L53.3407 24.986L52.5347 27.838L54.5807 30.318L59.7267 32.798H62.5787L71.1967 34.41L68.5307 35.216L69.1507 37.882L66.0507 37.076L64.6247 37.882L61.3387 38.502L60.1607 37.696L56.2547 38.502L54.2087 37.262L51.5427 38.502L48.0707 37.696L47.0167 39.308L49.2487 41.602L52.7827 43.834L54.8287 43.648L52.7827 41.788L64.8727 45.88L71.0107 42.408L74.0487 37.696ZM60.7187 35.402L63.0127 35.65L61.5867 36.27L62.2067 36.89L64.6247 36.456L64.8727 35.216L64.0047 34.224L59.9127 33.976L60.7187 35.402ZM57.0607 24.366L58.9207 27.218L56.0067 29.884L57.0607 24.366ZM120.226 31.558L124.442 37.944L116.196 44.64L111.36 43.09L103.672 46.376L95.4262 44.144L90.5282 46.376L83.2742 41.974L84.1422 36.456L79.8642 29.574L82.2822 25.048L85.5682 24.056L88.2962 19.592L93.6902 20.15L96.6662 21.886L95.9842 9.73402L100.138 2.48002L105.656 0.0620205L111.36 7.00602L107.082 26.04L109.376 32.24L120.226 31.558ZM87.5522 25.048V30.008L88.7922 31.558L93.6902 31L90.5282 33.728L90.7142 34.286L95.4262 35.402L96.6662 31.744L93.0082 25.296V23.87L95.9842 23.56L92.2642 21.328H88.9782L87.5522 25.048ZM82.0962 29.76L85.0102 34.286L87.9862 34.72L86.3122 36.456L87.5522 38.13L89.9702 37.696L89.5362 35.278L86.0022 31.248L86.3122 26.598L83.5842 26.846L82.0962 29.76ZM115.762 41.974L121.218 37.262L118.924 32.984L107.826 35.278L104.664 25.854L109.066 7.19202L104.85 2.79002L101.688 3.53402L98.2162 10.726V20.894L98.9602 25.854L95.4262 25.296L98.9602 32.55L96.6662 36.952L92.5122 36.704L91.7062 37.944L87.9862 39.68L85.3202 38.936V40.92L90.9622 44.64L93.5042 43.648L90.7142 41.106L103.672 44.64L111.36 41.106L115.762 41.974ZM127.754 24.676L133.458 21.762L133.706 19.654L140.712 17.174L141.146 16.058L151.686 16.802L155.84 20.46H162.35L167.93 27.528L158.01 37.014L157.204 43.772L149.144 46.624L142.82 45.446L139.968 46.314L132.156 39.37L132.9 34.782L127.754 30.194V24.676ZM135.38 21.08V26.908L137.674 27.094L136.124 28.706L138.604 31.682L140.216 31.93L139.472 32.488L141.146 34.782L138.852 25.978L140.526 19.282L135.38 21.08ZM151.438 18.538L142.82 17.608L140.526 25.854L144.184 25.978L141.146 27.094L141.766 31.124L147.036 31.682L142.448 33.232L144.184 35.898L148.524 33.852L149.516 28.83L151.066 27.094L148.524 19.654L151.996 25.606L154.848 21.514L151.438 18.538ZM140.216 44.702H141.146L139.472 41.478L143.998 44.702L149.144 45.074L155.282 42.408L156.646 37.324L166.38 27.094L165.76 26.598L162.164 22.382L156.646 21.39L152.988 27.342L150.632 29.636L150.446 32.302L148.772 41.602V35.526L144.928 37.758L142.324 36.084L141.89 36.704L139.782 35.774L136.62 37.324L133.892 35.34L133.706 38.626L140.216 44.702ZM129.428 28.458L131.784 28.706L130.42 30.07L134.202 33.232L135.628 33.046L135.008 34.162L136.62 35.34L138.48 34.162L133.706 28.272V23.312L129.304 25.234L129.428 28.458ZM161.916 28.272L158.01 24.676L165.016 27.342L161.916 28.272ZM170.307 36.27L173.221 30.194H175.701L177.251 26.846L174.957 20.584L170.927 13.888L174.151 8.37002L177.251 9.17602V6.69602L180.351 3.41002L184.381 4.52602L185.497 2.48002L191.325 2.13385e-05L198.021 6.32402L195.355 18.848L197.649 31.992L196.037 41.478L195.665 44.516L188.225 46.748L183.265 45.012L179.297 45.88L175.453 40.982L170.307 36.27ZM191.325 29.76L196.285 32.24L193.309 19.22L196.285 6.51002L190.891 1.36402L186.861 4.03002L185.931 13.888L185.745 24.862L184.381 14.136V6.69602L180.661 5.64202L178.987 7.62602L181.715 19.034L180.785 25.358L180.165 18.352L177.685 11.16L175.267 10.106L172.539 13.454L176.817 20.398L178.615 26.474L188.659 26.846L178.615 28.458L177.685 30.442L180.351 31.124L191.325 29.76ZM189.527 43.462L186.179 40.486L176.631 41.168L179.917 44.764L182.397 44.33L180.661 42.532L188.907 45.198L193.991 42.966L195.355 35.34L191.139 30.876L180.165 32.24L174.151 31.124L171.857 35.588L176.631 39.866L187.109 38.254L189.527 43.462ZM176.817 32.488L177.933 35.588L174.523 36.952L176.817 32.488Z" fill="#FF0000"/>
</svg>
